<svg height="512pt" viewBox="0 0 511 512" width="512pt" xmlns="http://www.w3.org/2000/svg"><path d="m149.675781 441.378906h-35.558593c-4.410157 0-8.148438 3.257813-8.746094 7.628906l-7.609375 55.363282c-.601563 4.375-4.335938 7.628906-8.75 7.628906h-79.632813c-2.621094 0-5.105468-1.160156-6.792968-3.164062-1.6875-2.003907-2.402344-4.652344-1.957032-7.234376l87.070313-501.601562h159.960937zm0 0" fill="#7f6e5d"/><path d="m503.660156 512h-78.6875c-4.414062 0-8.148437-3.253906-8.746094-7.628906l-7.636718-55.363282c-.601563-4.371093-4.335938-7.628906-8.75-7.628906h-133.558594c-2.566406-.007812-5.003906 1.09375-6.6875 3.027344-1.6875 1.929688-2.449219 4.5-2.089844 7.035156l6.976563 50.53125c.34375 2.523438-.417969 5.078125-2.09375 7-1.671875 1.921875-4.097657 3.027344-6.648438 3.027344h-88.40625c-4.410156 0-8.144531-3.25-8.75-7.617188l-69.816406-504.382812h346.5c4.40625.00390625 8.136719 3.253906 8.738281 7.617188l68.398438 494.347656c.347656 2.527344-.414063 5.082031-2.085938 7.003906-1.675781 1.925781-4.101562 3.03125-6.65625 3.03125zm0 0" fill="#cbb292"/><path d="m350.363281 238.34375c29.210938 6.957031 49.644531 18.699219 51.984375 31.992188 3.761719 21.320312-40.589844 38.628906-99.070312 38.628906-58.484375 0-108.988282-17.308594-112.746094-38.628906-2.339844-13.292969 13.945312-25.035157 40.703125-31.992188" fill="#d1d4d1"/><path d="m356.964844 203.035156c-6.957032-.085937-13.722656-2.269531-19.421875-6.257812-.34375-.191406-.675781-.40625-.988281-.644532-7.417969-5.414062-12.5-13.441406-14.21875-22.457031-.550782-3.109375.601562-6.273437 3.015624-8.300781 2.417969-2.027344 5.730469-2.613281 8.695313-1.535156s5.128906 3.65625 5.679687 6.761718c.90625 4.355469 3.34375 8.246094 6.867188 10.964844l.574219.386719c2.828125 2.136719 6.253906 3.335937 9.796875 3.425781 1.75.019532 3.480468-.371094 5.050781-1.148437 3.714844-2.109375 5.53125-6.46875 4.414063-10.59375-1.742188-8.257813-8.820313-14.308594-17.25-14.738281h-22.070313c-4.875 0-8.828125-3.953126-8.828125-8.828126s3.953125-8.828124 8.828125-8.828124h22.070313c17.023437.417968 31.453124 12.644531 34.65625 29.367187 2.457031 11.738281-3.136719 23.683594-13.726563 29.308594-4.074219 2.0625-8.578125 3.128906-13.144531 3.117187zm0 0" fill="#c03a2b"/><g fill="#fff"><path d="m232.117188 114.757812c-1.140626.003907-2.273438-.21875-3.328126-.652343-4.5-1.839844-6.667968-6.96875-4.847656-11.476563l2.515625-6.179687c.511719-1.269531-.34375-3.671875-2.957031-5.621094-9.691406-6.292969-12.917969-18.972656-7.414062-29.132813l7.945312-13.242187c2.550781-4.078125 7.902344-5.363281 12.03125-2.882813 4.125 2.480469 5.503906 7.808594 3.097656 11.976563l-7.945312 13.242187c-.882813 1.472657.363281 4.070313 2.835937 5.90625 8.664063 5.738282 12.28125 16.660157 8.757813 26.4375l-2.507813 6.179688c-1.371093 3.304688-4.605469 5.457031-8.183593 5.445312zm0 0"/><path d="m267.425781 114.757812c-1.140625.003907-2.269531-.21875-3.328125-.652343-4.496094-1.839844-6.664062-6.96875-4.84375-11.476563l2.515625-6.179687c.511719-1.269531-.34375-3.671875-2.957031-5.621094-9.691406-6.292969-12.921875-18.972656-7.417969-29.132813l7.945313-13.242187c2.554687-4.078125 7.90625-5.363281 12.03125-2.882813 4.125 2.480469 5.503906 7.808594 3.101562 11.976563l-7.945312 13.242187c-.882813 1.472657.359375 4.070313 2.832031 5.90625 8.664063 5.738282 12.28125 16.660157 8.757813 26.4375l-2.507813 6.179688c-1.371094 3.304688-4.601563 5.457031-8.183594 5.445312zm0 0"/><path d="m302.738281 114.757812c-1.140625.003907-2.273437-.21875-3.328125-.652343-4.5-1.839844-6.667968-6.96875-4.847656-11.476563l2.515625-6.179687c.511719-1.269531-.34375-3.671875-2.957031-5.621094-9.691406-6.292969-12.917969-18.972656-7.414063-29.132813l7.945313-13.242187c2.550781-4.078125 7.902344-5.363281 12.027344-2.882813 4.128906 2.480469 5.507812 7.808594 3.101562 11.976563l-7.945312 13.242187c-.882813 1.472657.363281 4.070313 2.835937 5.90625 8.664063 5.738282 12.28125 16.660157 8.753906 26.4375l-2.503906 6.179688c-1.371094 3.304688-4.605469 5.457031-8.183594 5.445312zm0 0"/></g><path d="m424.214844 353.101562h-211.863282c-4.875 0-8.828124-3.949218-8.828124-8.824218s3.953124-8.828125 8.828124-8.828125h211.863282c4.875 0 8.828125 3.953125 8.828125 8.828125s-3.953125 8.824218-8.828125 8.824218zm0 0" fill="#fdd7ad"/><path d="m377.472656 388.414062h-105.933594c-4.875 0-8.824218-3.953124-8.824218-8.828124s3.949218-8.828126 8.824218-8.828126h105.933594c4.875 0 8.828125 3.953126 8.828125 8.828126s-3.953125 8.828124-8.828125 8.828124zm0 0" fill="#fdd7ad"/><path d="m335.445312 141.242188 12.003907 68.070312c5.96875 33.851562-14.953125 63.34375-48.585938 64.34375-36.34375-.34375-67.457031-26.144531-74.515625-61.792969l-10.890625-61.792969c-.507812-2.183593.03125-4.476562 1.453125-6.207031s3.570313-2.699219 5.808594-2.621093zm0 0" fill="#e64c3c"/></svg>