<svg height="512pt" viewBox="-44 0 512 512.0002" width="512pt" xmlns="http://www.w3.org/2000/svg"><g fill="#f6bb92"><path d="m345.742188 317.785156h60.316406v194.203125h-60.316406zm0 0"/><path d="m211.855469 97.101562h-26.480469c-9.75 0-17.65625-7.90625-17.65625-17.65625s7.90625-17.652343 17.65625-17.652343h26.480469zm0 0"/><path d="m300.132812 97.101562h26.480469c9.75 0 17.65625-7.90625 17.65625-17.65625s-7.90625-17.652343-17.65625-17.652343h-26.480469zm0 0"/></g><path d="m404.199219 202.09375-51.101563-25.546875-31.558594-18.933594c-8.234374-4.9375-17.652343-7.546875-27.25-7.546875h-76.585937c-9.601563 0-19.019531 2.609375-27.253906 7.546875l-31.554688 18.933594-114.757812 44.136719-35.953125 43.140625c-5.289063 6.347656-8.183594 14.347656-8.183594 22.605469v4.875c0 14.625 11.855469 26.480468 26.480469 26.480468h8.253906c11.484375.179688 22.839844-2.378906 33.140625-7.457031l91.019531-45.507813v247.167969h194.199219v-185.375h70.621094v-92.933593c0-13.375-7.554688-25.601563-19.515625-31.585938zm0 0" fill="#b6534f"/><path d="m353.097656 511.988281h-194.203125v-247.167969l35.308594-35.308593h123.582031l35.3125 35.308593zm0 0" fill="#3b869e"/><path d="m203.03125 46.34375h105.925781v86.066406h-105.925781zm0 0" fill="#fdc9a6"/><path d="m229.511719 97.101562c-4.875 0-8.828125-3.953124-8.828125-8.828124v-8.828126c0-4.875 3.953125-8.828124 8.828125-8.828124s8.828125 3.953124 8.828125 8.828124v8.828126c0 4.875-3.953125 8.828124-8.828125 8.828124zm0 0" fill="#bd9070"/><path d="m282.476562 97.101562c-4.875 0-8.828124-3.953124-8.828124-8.828124v-8.828126c0-4.875 3.953124-8.828124 8.828124-8.828124s8.828126 3.953124 8.828126 8.828124v8.828126c0 4.875-3.953126 8.828124-8.828126 8.828124zm0 0" fill="#bd9070"/><path d="m255.996094 185.375c-29.253906 0-52.964844-23.710938-52.964844-52.964844v-8.828125l52.964844-8.824219 52.960937 8.824219v8.828125c0 29.253906-23.710937 52.964844-52.960937 52.964844zm0 0" fill="#744630"/><path d="m247.167969 123.582031c-4.875 0-8.824219-3.957031-8.824219-8.832031 0-1.367188.320312-2.714844.929688-3.941406l8.828124-17.652344c2.179688-4.363281 7.484376-6.132812 11.847657-3.957031 4.363281 2.179687 6.132812 7.484375 3.953125 11.847656l-8.824219 17.65625c-1.5 2.996094-4.5625 4.886719-7.910156 4.878906zm0 0" fill="#f6bb92"/><path d="m185.375 277.082031c-4.875.011719-8.835938-3.929687-8.847656-8.804687-.007813-3.742188 2.339844-7.082032 5.863281-8.335938l58.746094-21.082031c2.785156-.988281 5.875-.53125 8.253906 1.21875l11.875 8.828125c3.90625 2.917969 4.707031 8.449219 1.792969 12.359375-2.917969 3.90625-8.453125 4.707031-12.359375 1.789063l-8.070313-6.011719-54.269531 19.519531c-.957031.34375-1.96875.519531-2.984375.519531zm0 0" fill="#a8a8a8"/><path d="m247.167969 282.476562h17.652343v17.65625h-17.652343zm0 0" fill="#b3e4e8"/><path d="m247.167969 317.785156h17.652343v17.65625h-17.652343zm0 0" fill="#b3e4e8"/><path d="m282.476562 423.714844-1.101562 6.621094-50.203125-.546876-1.660156-6.074218-26.480469-70.621094 38.449219 6.410156c9.609375 1.597656 19.417969 1.597656 29.027343 0l38.449219-6.410156zm0 0" fill="#fbd699"/><path d="m214.453125 462.148438 15.058594-38.433594h52.964843l15.042969 38.398437zm0 0" fill="#d9d9d9"/><path d="m213.675781 464.136719c-7.476562 17.421875.589844 37.605469 18.015625 45.082031 4.546875 1.953125 9.460938 2.894531 14.40625 2.769531h19.792969c18.953125.484375 34.710937-14.492187 35.191406-33.445312.125-4.945313-.820312-9.859375-2.769531-14.40625l-2.003906-5.113281h-80.628906zm0 0" fill="#744630"/><path d="m143.066406 182.640625-98.929687 38.042969-35.953125 43.140625c-5.289063 6.347656-8.183594 14.347656-8.183594 22.605469v4.875c0 14.625 11.855469 26.480468 26.480469 26.480468h11.902343c9.589844 0 19.050782-2.234375 27.628907-6.523437l83.726562-41.867188zm0 0" fill="#f6bb92"/><path d="m317.785156 247.167969c-4.875 0-8.828125-3.953125-8.828125-8.828125v-79.445313c0-4.875 3.953125-8.828125 8.828125-8.828125s8.828125 3.953125 8.828125 8.828125v79.445313c0 4.875-3.953125 8.828125-8.828125 8.828125zm0 0" fill="#744630"/><path d="m194.203125 247.167969c-4.875 0-8.828125-3.953125-8.828125-8.828125v-79.445313c0-4.875 3.953125-8.828125 8.828125-8.828125s8.828125 3.953125 8.828125 8.828125v79.445313c0 4.875-3.953125 8.828125-8.828125 8.828125zm0 0" fill="#744630"/><path d="m308.957031 52.964844h-105.925781v-19.316406c0-18.582032 15.0625-33.648438 33.648438-33.648438h98.761718zm0 0" fill="#744630"/><path d="m353.097656 441.371094h52.960938v35.308594h-52.960938zm0 0" fill="#a8a8a8"/><path d="m97.101562 224.683594c-1.308593-.007813-2.59375-.308594-3.769531-.882813-4.40625-2.082031-6.292969-7.34375-4.210937-11.75l18.828125-39.90625c2.078125-4.410156 7.339843-6.300781 11.75-4.222656l31.9375 15.0625c4.410156 2.078125 6.296875 7.34375 4.214843 11.753906-2.082031 4.40625-7.34375 6.296875-11.753906 4.214844l-23.949218-11.292969-15.101563 31.964844c-1.453125 3.078125-4.542969 5.042969-7.945313 5.058594zm0 0" fill="#a8a8a8"/><path d="m70.621094 185.375-62.878906 78.5625c-5.011719 6.265625-7.742188 14.046875-7.742188 22.070312v5.296876c0 14.625 11.855469 26.480468 26.480469 26.480468h14.125c7.425781.003906 14.058593-4.644531 16.597656-11.625l31.070313-85.476562h35.308593v-44.136719zm0 0" fill="#fdc9a6"/><path d="m164.710938 308.269531-57.898438-29.023437c-4.359375-2.179688-6.128906-7.484375-3.945312-11.84375.074218-.152344.152343-.296875.238281-.445313l48.074219-83.789062 56.820312 28.140625-30.964844 91.886718c-1.554687 4.621094-6.5625 7.105469-11.183594 5.550782-.390624-.132813-.773437-.289063-1.140624-.476563zm0 0" fill="#b9b9b9"/></svg>